<svg width="134" height="134" viewBox="0 0 134 134" fill="none" xmlns="http://www.w3.org/2000/svg">
  <path d="M3.03133 0.00375C1.30833 0.16575 -0.00666651 1.61675 0.000333494 3.34775V26.7558C-0.0166665 27.9618 0.617334 29.0837 1.65833 29.6917C2.69933 30.2997 3.98833 30.2997 5.03033 29.6917C6.07233 29.0837 6.70533 27.9618 6.68833 26.7558V11.3938L25.8653 30.5697C27.3593 28.9067 28.9553 27.3608 30.6203 25.8678L11.4433 6.69175H26.7533C27.9593 6.70875 29.0813 6.07475 29.6893 5.03375C30.2973 3.99175 30.2973 2.70375 29.6893 1.66175C29.0813 0.61975 27.9593 -0.01325 26.7533 0.00375H3.34433C3.24033 -0.00125 3.13533 -0.00125 3.03133 0.00375ZM30.6193 25.8668L62.5443 57.7917C63.8293 59.0137 63.8433 61.3377 62.5963 62.5987C61.3493 63.8587 59.0773 63.8177 57.8413 62.5467L25.8653 30.5697C16.0253 41.5247 10.0333 56.0147 10.0333 71.8997C10.0333 106.066 37.7313 133.764 71.8983 133.764C106.065 133.764 133.763 106.067 133.763 71.8997C133.763 37.7327 106.065 10.0358 71.8983 10.0358C56.0273 10.0358 41.5713 16.0428 30.6203 25.8678L30.6193 25.8668Z" fill="#FF4B4B"/>
</svg>
